<svg xmlns="http://www.w3.org/2000/svg" width="40" height="40" viewBox="0 0 40 40">
    <path fill="#979797" fill-rule="nonzero" d="M28.599 19.513H26.11v9.352c0 .321-.06.381-.361.381h-2.027c-.301 0-.402-.06-.402-.381V10.38c0-.3.1-.381.402-.381h2.027c.3 0 .361.08.361.381v6.844H28.6c.24 0 .401 0 .401.381v1.525c0 .322-.16.382-.401.382zm-15.815 5.599c-.381.22-.522.24-.742-.06l-.944-1.405c-.18-.261-.1-.522.14-.662 4.035-2.268 6.403-5.278 6.885-8.79.04-.282-.06-.422-.301-.422h-5.6c-.34 0-.381-.1-.381-.401v-1.506c0-.32.08-.38.381-.38h7.305c1.345 0 1.666.52 1.586 1.705-.321 4.817-3.352 9.192-8.329 11.921z"/>
</svg>
