<svg xmlns="http://www.w3.org/2000/svg" width="40" height="40" viewBox="0 0 40 40">
    <g fill="none" fill-rule="nonzero">
        <path fill="#FFF" stroke="#979797" d="M21.857 26.384l1.45-1.45-7.779-7.778-3.182 3.182a1.5 1.5 0 0 0 0 2.12l3.925 3.926h5.586z"/>
        <path fill="#979797" stroke="#979797" d="M15.882 16.802l7.778 7.778 5.657-5.657a1.5 1.5 0 0 0 0-2.121l-5.657-5.657a1.5 1.5 0 0 0-2.121 0l-5.657 5.657z"/>
        <path fill="#FFF" d="M26.488 21.045l-1.06 1.06-7.071-7.07 1.06-1.061z"/>
        <path fill="#979797" d="M25.428 22.106l-1.415 1.414-7.07-7.071 1.414-1.414z"/>
        <path fill="#FFF" d="M24.72 22.813l-1.06 1.06-7.071-7.07 1.06-1.061z"/>
        <path fill="#979797" d="M9 30v-2h2v2H9zm4 0v-2h2v2h-2zm4 0v-2h2v2h-2zm4 0v-2h2v2h-2zm4-2h2v2h-2v-2zm4 0h2v2h-2v-2z"/>
    </g>
</svg>
