<svg xmlns="http://www.w3.org/2000/svg" xmlns:xlink="http://www.w3.org/1999/xlink" width="40" height="40" viewBox="0 0 40 40">
    <defs>
        <path id="a" d="M.386 0A.386.386 0 0 0 0 .386v7.728c0 .213.173.386.386.386h7.728a.386.386 0 0 0 .386-.386V.386A.386.386 0 0 0 8.114 0H.386z"/>
    </defs>
    <g fill="none" fill-rule="evenodd">
        <g transform="rotate(45 -.985 18.828)">
            <g transform="translate(10 3)">
                <mask id="b" fill="#fff">
                    <use xlink:href="#a"/>
                </mask>
                <path fill="#979797" fill-rule="nonzero" d="M16.63 6.315l-9.714 9.713L.24 9.35 9.952-.363z" mask="url(#b)"/>
            </g>
            <rect width="12.5" height="12.5" x="8.043" y="1.043" stroke="#979797" stroke-width="1.5" rx="2"/>
            <rect width="10" height="1.5" x=".293" y=".293" fill="#979797" fill-rule="nonzero" rx=".75"/>
            <rect width="5" height="1.5" x="17.879" y=".293" fill="#979797" fill-rule="nonzero" rx=".75"/>
        </g>
        <path fill="#979797" fill-rule="nonzero" d="M30 32.5a3 3 0 0 0 3-3c0-1.657-2.895-5.5-3-5.5-.105 0-3 3.843-3 5.5a3 3 0 0 0 3 3z"/>
    </g>
</svg>
