<svg xmlns="http://www.w3.org/2000/svg" width="30" height="30" viewBox="0 0 30 30">
    <g fill="none" fill-rule="nonzero" transform="rotate(90 15 15)">
        <circle cx="15" cy="15" r="14.5" fill="#FFF" stroke="#4F80FF"/>
        <path fill="#FFF" stroke="#4F80FF" d="M7.5 12.207L11.293 16 7.5 19.793v-7.586z"/>
        <path fill="#4F80FF" d="M22.146 11.854l-3.792 3.792a.5.5 0 0 0 0 .708l3.792 3.792a.5.5 0 0 0 .854-.353v-7.586a.5.5 0 0 0-.854-.353zM18.791 8.903c-2.14-2.097-5.031-1.945-7.46.065l.887.037a.5.5 0 1 1-.041 1l-2.1-.088a.5.5 0 0 1-.48-.51l.045-2.154a.5.5 0 1 1 1 .02l-.02.993a.504.504 0 0 1 .057-.056c2.818-2.343 6.32-2.514 8.865.031a.508.508 0 0 1 .018.018l.006-.98a.5.5 0 1 1 1 .007l-.014 2.102a.5.5 0 0 1-.493.497l-2.154.03a.5.5 0 1 1-.014-1l.898-.012zm-8.183.004v.031l.028.001a.507.507 0 0 1-.028-.032z"/>
        <path fill="#FFB500" d="M14.5 11a.5.5 0 0 1 1 0v1a.5.5 0 0 1-1 0v-1zm0 3a.5.5 0 0 1 1 0v1a.5.5 0 0 1-1 0v-1zm0 3a.5.5 0 1 1 1 0v1a.5.5 0 1 1-1 0v-1zm0 3a.5.5 0 1 1 1 0v1a.5.5 0 1 1-1 0v-1z"/>
    </g>
</svg>
