<svg xmlns="http://www.w3.org/2000/svg" width="46" height="45" viewBox="0 0 46 45">
    <g fill="none" fill-rule="nonzero">
        <g>
            <path stroke="#4F80FF" stroke-dasharray="1,1,1,1" d="M2 2h32v32H2V2z"/>
            <path fill="#FFB500" d="M0 0h4v4H0V0zm0 16h4v4H0v-4zm0 16h4v4H0v-4zM16 0h4v4h-4V0zm0 32h4v4h-4v-4zM32 0h4v4h-4V0zm0 16h4v4h-4v-4z"/>
            <rect width="4" height="4" x="16" y="16" fill="#4F80FF" rx="2"/>
        </g>
        <g transform="rotate(45 -2.121 49.506)">
            <path fill="#4F80FF" stroke="#F9F9F9" d="M13.234 14.773L9.04 17.882a3.272 3.272 0 0 1-4.601-.484l-.325-.401 6.029-4.566-6.1-4.62.325-.4c1.137-1.405 3.198-1.622 4.585-.498l4.282 3.176 2.473-1.873.13.825c.061.39.223.759.478 1.074.25.309.57.541.93.683l.692.273-.513.538c-.097.101-.2.197-.327.299l-.705.523.651.483c.11.089.214.184.31.286l.514.538-.692.272c-.36.142-.68.375-.93.684a2.259 2.259 0 0 0-.479 1.073l-.13.825-2.403-1.82zm2.954-.126a3.272 3.272 0 1 1 5.085 4.118 3.272 3.272 0 0 1-5.085-4.118zm1.638 1.327a1.163 1.163 0 1 0 1.808 1.464 1.163 1.163 0 0 0-1.808-1.464zm-1.568-5.812a3.272 3.272 0 1 1 5.085-4.118 3.272 3.272 0 0 1-5.085 4.118zm1.639-1.327a1.163 1.163 0 1 0 1.808-1.464 1.163 1.163 0 0 0-1.808 1.464z"/>
            <circle cx="13.082" cy="12.291" r="1" fill="#FFF" transform="rotate(59 13.082 12.291)"/>
        </g>
    </g>
</svg>
