<svg xmlns="http://www.w3.org/2000/svg" width="40" height="40" viewBox="0 0 40 40">
    <path fill="#979797" fill-rule="nonzero" d="M11.573 25.038c-.01-.02-.04-.03-.023-.05l.023.05zm.236.379c-.305.154-.583.108-.698-.177l-.309-.671c-.128-.282-.012-.552.253-.658 4.492-2.14 7.556-5.649 8.601-9.653.062-.195.084-.17-.136-.17h-5.936c-.316 0-.49-.223-.436-.542l.113-.67a.496.496 0 0 1 .517-.44h6.3c1.304 0 1.715.528 1.45 1.687-1.025 4.554-4.643 8.803-9.72 11.294zm12.307 3.263a.545.545 0 0 1-.561.479h-.786c-.329 0-.526-.237-.471-.562l2.878-17.119a.545.545 0 0 1 .562-.478h.785c.329 0 .526.237.471.562l-1.09 6.485h2.345c.305 0 .546.228.493.542l-.109.651c-.044.261-.306.46-.578.46h-2.429l-1.51 8.98z"/>
</svg>
