<svg xmlns="http://www.w3.org/2000/svg" width="40" height="40" viewBox="0 0 40 40">
    <g fill="none" fill-rule="nonzero">
        <path fill="#4F80FF" d="M29 28.75v.5h-1v-.5h1zm-2 0v.5h-1v-.5h1zm-2 0v.5h-1v-.5h1zm-2 0v.5h-1v-.5h1zm-2 0v.5h-1v-.5h1zm-2 0v.5h-1v-.5h1zm-2 0v.5h-1v-.5h1zm-2 0v.5h-1v-.5h1zm-2 0v.5h-1v-.5h1z"/>
        <path fill="#FFB500" d="M10 28h2v2h-2v-2zm18 0h2v2h-2v-2z"/>
        <g>
            <path fill="#4F80FF" d="M17.74 26.409l-4.243-4.243a1 1 0 0 1 0-1.414L25.164 9.085a2 2 0 0 1 2.828 0l2.829 2.828a2 2 0 0 1 0 2.829L19.153 26.409a1 1 0 0 1-1.414 0zm.706-.707l11.668-11.668a1 1 0 0 0 0-1.414l-2.829-2.828a1 1 0 0 0-1.414 0L14.204 21.459l4.242 4.243z"/>
            <path fill="#4F80FF" d="M17.358 26.028l-3.48-3.48-2.176 5.655 5.656-2.175zm-6.59 1.816l2.452-6.374a.5.5 0 0 1 .82-.174l4.57 4.569a.5.5 0 0 1-.175.82l-6.374 2.452a1 1 0 0 1-1.292-1.293z"/>
            <path fill="#4F80FF" d="M24.103 12.974L22.69 11.56l2.121-2.122 5.657 5.657-2.121 2.121-1.414-1.414-9.546 9.546a.5.5 0 0 1-.707 0l-2.122-2.121a.5.5 0 0 1 0-.707l9.546-9.546zm.707.707l-9.192 9.192 1.414 1.415 9.193-9.193-1.415-1.414zm3.536 2.121l.707-.707-4.243-4.242-.707.707 4.243 4.242z"/>
            <path fill="#FFB500" stroke="#4F80FF" d="M29.76 15.095l1.06-1.06a1.5 1.5 0 0 0 0-2.122l-2.828-2.828a1.5 1.5 0 0 0-2.121 0l-1.06 1.06 4.949 4.95z"/>
            <path fill="#4F80FF" stroke="#4F80FF" d="M14.067 27.686l-1.848-1.847-1.176 2.353a.5.5 0 0 0 .67.67l2.354-1.176z"/>
        </g>
    </g>
</svg>
