<svg xmlns="http://www.w3.org/2000/svg" width="40" height="40" viewBox="0 0 40 40">
    <g fill="none" fill-rule="nonzero">
        <path fill="#4F80FF" d="M21 23l2.5-2.5 3 3L24 26z"/>
        <g transform="translate(22 22)">
            <rect width="1.328" height="4.794" x="6.501" y="4.158" fill="#FFB500" rx=".5" transform="rotate(45 7.165 6.555)"/>
            <path fill="#4F80FF" d="M2.19 3.81l4.439 4.44A1.5 1.5 0 1 0 8.75 6.129l-4.44-4.44-2.12 2.122zm-1.415 0L4.311.276l5.146 5.147a2.5 2.5 0 0 1-3.535 3.535L.775 3.811z"/>
        </g>
        <path fill="#4F80FF" d="M18 23a6 6 0 1 0 0-12 6 6 0 0 0 0 12zm0 2a8 8 0 1 1 0-16 8 8 0 0 1 0 16z"/>
        <path fill="#FFB500" d="M17.25 16.25v-1.5a.75.75 0 0 1 1.5 0v1.5h1.5a.75.75 0 1 1 0 1.5h-1.5v1.5a.75.75 0 1 1-1.5 0v-1.5h-1.5a.75.75 0 0 1 0-1.5h1.5z"/>
    </g>
</svg>
