<svg xmlns="http://www.w3.org/2000/svg" width="40" height="40" viewBox="0 0 40 40">
    <g fill="#979797" fill-rule="nonzero">
        <path d="M21 23l2.5-2.5 3 3L24 26z"/>
        <path d="M24.19 25.81l4.439 4.44a1.5 1.5 0 1 0 2.121-2.121l-4.44-4.44-2.12 2.122zm-1.415 0l3.536-3.535 5.146 5.147a2.5 2.5 0 0 1-3.535 3.535l-5.147-5.146z"/>
        <path d="M30.744 26.744l.232.232a.5.5 0 0 1 0 .707l-2.683 2.683a.5.5 0 0 1-.707 0l-.232-.232a.5.5 0 0 1 0-.707l2.683-2.683a.5.5 0 0 1 .707 0zM18 23a6 6 0 1 0 0-12 6 6 0 0 0 0 12zm0 2a8 8 0 1 1 0-16 8 8 0 0 1 0 16z"/>
        <path d="M17.25 16.25v-1.5a.75.75 0 1 1 1.5 0v1.5h1.5a.75.75 0 1 1 0 1.5h-1.5v1.5a.75.75 0 1 1-1.5 0v-1.5h-1.5a.75.75 0 1 1 0-1.5h1.5z"/>
    </g>
</svg>
