<svg xmlns="http://www.w3.org/2000/svg" width="40" height="40" viewBox="0 0 40 40">
    <g fill="none" fill-rule="nonzero">
        <path fill="#FFF" d="M27.55 24.186A6.5 6.5 0 0 1 21.086 30c-2.399 0-3.95-.071-6.698-3.369l-3.802-4.803A2 2 0 0 1 13.414 19l1.172 1.172V12a2 2 0 0 1 3-1.732V10a2 2 0 0 1 3.887-.662A2 2 0 0 1 24.585 11v2.268a2 2 0 0 1 3 1.732v9h-.018c-.005.062-.01.124-.017.186a.5.5 0 1 1-.928-.372.5.5 0 0 1 .928.372z"/>
        <path fill="#4F80FF" d="M27.55 24.186A6.5 6.5 0 0 1 21.086 30c-2.399 0-3.95-.071-6.698-3.369l-3.802-4.803A2 2 0 0 1 13.414 19l1.172 1.172V12a2 2 0 0 1 3-1.732V10a2 2 0 0 1 3.887-.662A2 2 0 0 1 24.585 11v2.268a2 2 0 0 1 3 1.732v9h-.018c-.005.062-.01.124-.017.186a.5.5 0 1 1-.928-.372.5.5 0 0 1 .928.372zM23.586 19v-8a1 1 0 1 0-2 0v7a.5.5 0 1 1-1 0v-8a1 1 0 1 0-2 0v9a.5.5 0 1 1-1 0v-7a1 1 0 1 0-2 0v9.379a.5.5 0 0 1-.854.353l-2.025-2.025a1 1 0 0 0-1.414 1.414L15.2 26.03C17.586 29 18.96 29 21.086 29a5.5 5.5 0 0 0 5.477-5l.023-3.574V15a1 1 0 1 0-2 0v4a.5.5 0 1 1-1 0z"/>
        <rect width="10" height="3" x="15.5" y="28.5" fill="#FFB500" stroke="#4F80FF" rx="1"/>
        <rect width="1" height="3" x="21" y="24.5" fill="#4F80FF" rx=".5"/>
        <rect width="1" height="2.221" x="18.65" y="25.017" fill="#4F80FF" rx=".5" transform="rotate(-20 19.15 26.127)"/>
        <rect width="1" height="2.221" x="23.35" y="25.017" fill="#4F80FF" rx=".5" transform="rotate(20 23.85 26.127)"/>
    </g>
</svg>
