<svg xmlns="http://www.w3.org/2000/svg" width="40" height="40" viewBox="0 0 40 40">
    <g fill="none" fill-rule="nonzero">
        <g stroke="#979797" transform="rotate(-135 12.89 13.445)">
            <path fill="#FFF" d="M1 7.5a.5.5 0 0 0-.5.5v16.5A1.5 1.5 0 0 0 2 26h4a1.5 1.5 0 0 0 1.5-1.5V8a.5.5 0 0 0-.5-.5H1zM4.457 1.26a.5.5 0 0 0-.914 0L.77 7.5h6.462L4.457 1.26z"/>
            <rect width="3" height="14" x="2.5" y="7.5" rx=".5"/>
            <path fill="#FFF" d="M.5 21.5h7v2h-7z"/>
            <path fill="#979797" d="M.5 23.5V25A1.5 1.5 0 0 0 2 26.5h4A1.5 1.5 0 0 0 7.5 25v-1.5h-7zM2.694 3.5h2.612l-.832-2.496a.5.5 0 0 0-.948 0L2.694 3.5z"/>
        </g>
        <path fill="#979797" d="M29.432 30.54l.016-.027c-.003.004-.002.022-.004.036l-.012-.01zm-1.647-.611c-2.122-.391-5.297-.093-9.09 1.024-4.102 1.208-6.804 1.531-8.293 1.052-1.759-.567-1.911-2.178-.854-3.462a1 1 0 0 1 1.544 1.27c-.118.144-.177.26-.195.31-.01-.055.016-.055.118-.022.993.32 3.376.035 7.114-1.066 4.074-1.2 7.556-1.527 10.019-1.073 2.518.464 4.038 1.903 3.007 3.593a1 1 0 0 1-1.723-1.015c-.289-.228-.846-.464-1.647-.611zm-16.888.195a.075.075 0 0 0-.006.024c-.003-.024-.007-.044-.006-.056l.012.032z"/>
    </g>
</svg>
