<svg xmlns="http://www.w3.org/2000/svg" width="40" height="40" viewBox="0 0 40 40">
    <g fill="none" fill-rule="nonzero">
        <g transform="translate(10 9)">
            <path stroke="#4F80FF" stroke-dasharray="1,1,1,1" stroke-width=".5" d="M1 1h18v18H1V1z"/>
            <path fill="#FFB500" d="M0 0h2v2H0V0zm0 9h2v2H0V9zm0 9h2v2H0v-2zM9 0h2v2H9V0zm0 18h2v2H9v-2zm9-18h2v2h-2V0zm0 9h2v2h-2V9z"/>
            <rect width="2" height="2" x="9" y="9" fill="#4F80FF" rx="1"/>
        </g>
        <g transform="rotate(45 -4.45 43.885)">
            <path fill="#4F80FF" stroke="#FFF" d="M8.332 10.162l-2.523 1.87a2.245 2.245 0 0 1-3.158-.331l-.325-.402 3.753-2.842L2.281 5.58l.326-.401c.78-.964 2.194-1.112 3.14-.345L8.332 6.75l1.693-1.282.13.825a1.237 1.237 0 0 0 .772.963l.692.273-.514.538c-.066.07-.137.135-.23.209l-.243.18.216.16c.075.062.147.127.213.197l.513.538-.692.272a1.237 1.237 0 0 0-.51.375c-.14.173-.228.374-.262.588l-.13.825-1.648-1.249zm1.716-.427a2.245 2.245 0 1 1 3.49 2.826 2.245 2.245 0 0 1-3.49-2.826zm1.32 1.069a.547.547 0 1 0 .85.688.547.547 0 0 0-.85-.688zm-1.275-3.66a2.245 2.245 0 1 1 3.49-2.826 2.245 2.245 0 0 1-3.49 2.826zm1.32-1.068a.547.547 0 1 0 .85-.689.547.547 0 0 0-.85.689z"/>
            <circle cx="8.237" cy="8.369" r="1" fill="#FFF" transform="rotate(59 8.237 8.369)"/>
        </g>
    </g>
</svg>
