<svg xmlns="http://www.w3.org/2000/svg" width="40" height="40" viewBox="0 0 40 40">
    <g fill="none" fill-rule="evenodd">
        <path fill="#4F80FF" d="M15.428 19.165v-5.22h-.759c-.694 0-1.995.02-2.906.338-.478.338-1.432 1.627-1.974 2.388-.065.106-.13.17-.217.148l-.477-.17c-.087-.02-.109-.126-.087-.19.238-.887.954-3.677 1.041-4.1.065-.274.174-.359.325-.359.152 0 .217.085.413.317.238.296 12.537.254 12.797 0 .217-.211.347-.317.5-.317.151 0 .216.085.26.338l.65 4.206c.022.085-.021.17-.086.19l-.456.17c-.087.02-.13-.043-.217-.19-.477-.762-1.323-1.86-1.865-2.368-.543-.317-2.473-.401-2.972-.401h-.716v5.812c0 .296 0 6.214.022 6.531.043.528.217.845.737.845h.976c.196 0 .217.064.217.212v.486c0 .106-.021.169-.217.169-.216 0-.91-.063-3.318-.063-2.3 0-3.21.063-3.514.063-.174 0-.196-.085-.196-.254v-.401c0-.148.022-.212.152-.212h1.107c.433 0 .694-.253.737-.634.043-.444.043-6.932.043-7.334z"/>
        <path fill="#FFB500" fill-rule="nonzero" d="M29.75 10a.75.75 0 0 1 .75.75v18.5a.75.75 0 1 1-1.5 0v-18.5a.75.75 0 0 1 .75-.75z"/>
    </g>
</svg>
